<?xml version="1.0" encoding="utf-8"?>
<!-- Generator: Adobe Illustrator 12.0.0, SVG Export Plug-In . SVG Version: 6.00 Build 51448)  -->
<!DOCTYPE svg PUBLIC "-//W3C//DTD SVG 1.1//EN" "http://www.w3.org/Graphics/SVG/1.1/DTD/svg11.dtd" [
	<!ENTITY ns_svg "http://www.w3.org/2000/svg">
	<!ENTITY ns_xlink "http://www.w3.org/1999/xlink">
]>
<svg  version="1.1" id="レイヤー_1" xmlns="&ns_svg;" xmlns:xlink="&ns_xlink;" width="89.275" height="88.207"
	 viewBox="0 0 89.275 88.207" overflow="visible" enable-background="new 0 0 89.275 88.207" xml:space="preserve">
<path d="M45.946,6.359c0.157,0,0.315,0,0.473,0c1.427,2.827-0.576,5.188-0.946,7.809c-1.674,11.818,4.369,20.421,5.206,29.58
	c0.431,4.71-1.174,9.371-2.841,13.488c-1.229,3.043-2.623,7.257-5.679,7.81c-1.528-2.819,0.343-5.308,0.71-7.81
	c0.433-2.951,0.708-6.434,0.473-9.938c-0.605-9.038-6.474-15.222-5.442-25.084C38.383,17.585,42.593,8.509,45.946,6.359z"/>
<path d="M31.51,12.512c-0.354,4.312-2.501,6.949-2.13,12.305c0.53,7.647,6.91,14.153,6.152,22.953
	c-0.236,2.752-1.342,6.021-2.603,8.52c-1.12,2.217-2.364,5.314-5.443,5.68c-1.066-2.693,0.955-4.859,1.419-7.1
	c0.65-3.135,1.136-8.182,0.237-11.831c-0.818-3.326-3.006-5.991-4.023-8.992c-2.68-7.915-0.503-15.342,4.023-21.298
	C29.697,12.02,30.369,11.704,31.51,12.512z"/>
<path d="M61.564,12.275c0.489,3.51-2.082,7.577-2.13,12.068c-0.1,9.229,8.683,15.837,5.679,26.741
	c-0.352,1.273-4.424,11.668-6.862,10.887c-2.242-0.721-0.065-6.099,0.236-7.81c0.576-3.261,0.952-7.043,0.71-9.229
	c-0.778-7.003-5.864-11.304-5.443-19.877c0.228-4.609,3.195-9.563,5.68-12.305C60.095,12.017,60.274,11.913,61.564,12.275z"/>
<path d="M18.967,46.588c-1.166,3.381-3.312,3.816-4.731,6.152c-3.983,6.545-0.971,13.671,4.021,17.037
	c13.104,8.834,51.048,8.938,57.979-5.205c2.027-4.139,0.777-8.569-1.186-11.832c-1.316-2.195-4.176-3.551-4.021-6.627
	c3.72-0.877,7.187,2.505,8.992,5.207c4.58,6.848,3.659,15.955-2.13,21.061C62.25,86.174,19.053,85.193,8.319,68.596
	c-5.229-8.084,0.264-18.916,7.573-22.48C16.611,45.762,18.302,45.082,18.967,46.588z"/>
</svg>
